<?xml version="1.0" encoding="utf-8"?>
<!-- Generator: Adobe Illustrator 23.1.1, SVG Export Plug-In . SVG Version: 6.00 Build 0)  -->
<svg version="1.1" id="Ebene_1" xmlns="http://www.w3.org/2000/svg" xmlns:xlink="http://www.w3.org/1999/xlink" x="0px" y="0px"
	 viewBox="0 0 704 559" style="enable-background:new 0 0 704 559;" xml:space="preserve">
<style type="text/css">
	.st0{fill:#FFFFFF;stroke:#1D1D1B;stroke-width:5;stroke-miterlimit:10;}
</style>
<g>
	<g>
		<path d="M702.1,363.1c-0.3-2.9-1-5.5-2.2-7.8c-13.2-26.1-24.3-35.6-53.7-46.2l-35-12.6c-30.3-10.9-61.7-22.2-92.5-33.6
			c-16.8-6.2-33.1-14-48.3-21.6c-3-1.5-6.7-0.3-8.2,2.8c-1.5,3-0.3,6.7,2.8,8.2c15.5,7.7,32.2,15.7,49.5,22.1
			c30.8,11.4,62.2,22.7,92.6,33.6l35,12.6c26.4,9.5,35.1,17.1,46.9,40.3c0.5,1,0.8,2,0.9,3.5c1,11-3.6,20.2-15.1,30
			c-1.5,1.3-3.8,2.8-5.9,2.5c-2.1-0.3-3.7-2.2-4.7-3.7c-2.1-3.2-2.3-7.1-2.5-11.7l-0.1-1.8c0-2,0-5.4-2.9-8.6
			c-8.6-9.8-14-16.9-9.6-27.6c0.7-1.8,0.4-4.3-0.7-6c-1.6-2.8-5.1-3.9-8-2.5c-2.3,1.1-3.6,3.5-3.4,5.9c-5.9,17.4,5.1,29.9,12.3,37.8
			c0.1,0.4,0,0.7,0,1.1c0,0.5,0,0.9,0,1.4l0.1,0.9c0.3,5.5,0.6,11.7,4.4,17.7c3.3,5.2,8,8.5,13.2,9.2c0.7,0.1,1.5,0.2,2.4,0.2
			c3.6,0,8.2-1.1,13.3-5.4C692,395.8,704,383,702.1,363.1z"/>
		<path d="M286.9,272.3c-22,16.2-44.6,30.3-69.7,45.8l-20.7,12.7c-29.6,18.2-60.2,37.1-90.6,55.2l-5,2.9
			c-16.3,9.7-33.2,19.7-48.7,31.7l-2.6,2c-12.8,9.8-25.9,20-33.6,36c0,0,0,0-0.1,0c-0.8,0.4-1.9,1-3,1.9c-8.2,7.3-12.4,17-11.8,27.5
			c0.6,10.6,6.2,20.2,15.3,26.4c3.3,2.2,7.1,3.4,11,3.4c5.1,0,10.4-1.8,15.1-5.5c8.5-6.5,13.4-15.4,14.2-25.6c0.2-3,1.1-5.3,2.6-7.3
			c3.5-4.6,6.4-9.5,9.2-14.2c2.2-3.8,4.3-7.4,6.7-10.7c7-9.9,6.7-19.8-1-30c-0.6-0.8-1.2-1.7-1.7-2.5l-0.5-0.7
			c11.4-7.8,23.4-14.9,35-21.9l5-2.9c30.4-18.1,61.1-37,90.7-55.3l20.6-12.7c25.4-15.6,48.3-29.9,70.6-46.3c2.7-2,3.3-5.8,1.3-8.6
			C293.5,270.9,289.7,270.3,286.9,272.3z M65.4,447.5c-2.7,3.8-5,7.7-7.3,11.6c-2.7,4.6-5.3,9-8.3,12.9c-0.7,0.9-1.3,1.8-1.8,2.8
			c-2.4-0.3-4.8-0.3-6.9-0.2c-3.5,0.1-6.5,0.1-9-0.9c-1.4-0.5-2.9-0.6-4.3-0.1c-2.5,0.8-3.4,2.8-4.2,4.4c-1.5,3-0.3,6.7,2.7,8.2
			c1.8,0.9,3.7,0.9,5.4,0.1c3.3,0.7,6.6,0.6,9.5,0.6c1.2,0,2.3,0,3.4,0c-0.8,6.3-4,11.7-9.4,15.9c-3.1,2.4-8,4.3-11.7,1.7
			c-5.9-4.1-9.6-10.3-10-17.1c-0.4-6.6,2.3-12.8,7.4-17.3l0.6-0.3c1.4-0.7,4-2,5.3-4.9c6.3-13.8,18-22.8,30.4-32.4l2.7-2
			c0.8-0.6,1.6-1.2,2.4-1.9l0.1,0.2c0.7,1.1,1.4,2.2,2.2,3.2C69.1,438,69.3,441.9,65.4,447.5z"/>
		<path d="M422.7,175.2c-9.3-5.4-17.9-6.8-26.5-4.3c0-0.9,0-1.7-0.1-2.4c-0.8-18.4-0.8-34.9-0.1-50.4c0.3-5.7,3.1-11.3,6-17.1
			c1.7-3.4,3.5-7,4.9-10.8c1.4-3.8,3.1-7.6,4.7-11.4c4.4-10,8.9-20.4,9.5-32.3c0.6-13,1.5-30.8-14.2-43.3c-2.6-2.1-6.5-1.7-8.6,1
			c-2.1,2.6-1.7,6.5,1,8.6c10,8,10.3,19.2,9.6,33.2c-0.5,9.7-4.4,18.6-8.5,28c-1.7,4-3.5,8-5,12c-1.1,3.1-2.7,6.2-4.4,9.5
			c-3.4,6.7-6.9,13.7-7.3,22c-0.8,15.9-0.8,32.8,0.1,51.6c0.1,1.5,0.1,2.3,0,2.8c-0.1,0-0.2,0.1-0.3,0.1c-4.3,0.9-6.9,3.4-8.8,5.3
			l-0.6,0.6c-0.2,0.1-0.3,0.3-0.4,0.5c-1.2,0.6-2.2,1.7-2.8,3c-5.1,12.3-5.7,25.5-2,39.4c0.7,2.7,3.2,4.5,5.9,4.5
			c0.5,0,1.1-0.1,1.6-0.2c3.3-0.9,5.2-4.2,4.3-7.5c-2.9-10.8-2.6-20.7,1-30.2c0.3-0.2,0.6-0.4,0.8-0.6l0.8-0.7
			c1.3-1.3,1.9-1.9,2.6-2c2.4-0.5,4.3-1.4,5.7-2.4c1.7,1.7,4.2,2.4,6.6,1.5c4.6-1.7,9.1-1.5,14.3,0.7c-0.5,1.2-0.8,2.7-0.5,4.4
			c0.5,3,3.1,5.2,6.1,5.2c0.3,0,0.6,0,0.9-0.1c2.7-0.4,4.8-2.6,5.1-5.2c1-1.5,3.2-5.1,1-10.1C424.7,176.8,423.8,175.8,422.7,175.2z"
			/>
		<path d="M370.6,28.2c1.4-3.1,0-6.7-3.1-8.1c-3.1-1.4-6.7,0-8.1,3.1c-1.4,3.2-2.5,6.4-3.6,9.5c-1.9,5.5-3.7,10.6-7,14.8
			c-2.1,2.7-1.6,6.5,1.1,8.6c1.1,0.9,2.4,1.3,3.7,1.3c1.8,0,3.6-0.8,4.9-2.4c4.5-5.8,6.7-12.1,8.8-18.3
			C368.4,33.7,369.3,30.9,370.6,28.2z"/>
	</g>
	<g>
		<path class="st0" d="M143.4,487.2c-0.7-1.1-1.5-1.9-2.5-2.5l-1.3-0.4l-1.1-0.6c-0.7-0.1-1.4-0.2-2.2-0.1l-1.4,0
			c-0.7,0-1.2,0.1-1.9,0.5c-0.1,0-0.2,0.1-0.5,0.4l-0.6,0.8c-0.7,0.9-1.3,1.8-1.6,2.8c-0.1,0.3-0.2,0.5-0.3,0.7v4l-0.2,0.2v2.4
			l0.4,0.7c0.7,1.2,1.5,2.3,2.5,3.3l0.5,0.5c0.3,0.4,0.8,0.7,1.4,1l0.1,0.1c0.3,0.1,0.5,0.2,0.8,0.2c1.1,0.2,2.5,0.2,2.7,0.1l0.3,0
			c1.6-0.2,3-0.6,4.3-1.2l0.9-0.5c0,0,0.1,0,0.1-0.1c0.4-0.3,0.7-0.7,1-1c0.5-0.7,0.9-1.4,1.3-2.1l0.2-0.3v-4.7
			c-0.8-1.3-1.7-2.7-2.7-4L143.4,487.2z"/>
		<path class="st0" d="M537.6,472.4c-0.6-1.5-1.4-2.8-2.5-4.1l-1.4-0.9c-0.5-0.3-1-0.6-1.5-1c-1.9-0.8-3.8-1.4-5.8-1.9
			c-2-0.3-4.1-0.6-6.4-0.8h-6.4c-2,0.2-3.9,0.6-5.8,1.2c-0.8,0.3-1.6,0.6-2.3,1c-0.6,0.3-1.2,0.7-1.8,1.1c-1.8,1.2-3.2,2.8-4.3,4.8
			c-0.4,0.8-0.9,1.6-1.3,2.4h40.1C537.9,473.7,537.8,473.1,537.6,472.4z"/>
		<path class="st0" d="M497.1,509.6c0.4,0.7,0.7,1.4,1.1,2.1c0.3,0.5,0.6,1.1,1,1.6c0.3,0.4,0.7,0.7,1,1.2c0.5,0.4,1,0.7,1.4,1.1
			c0.3,0.3,0.6,0.6,0.9,0.8c0.4,0.2,0.7,0.5,1.1,0.7l3,1.4c1.1,0.4,2.1,0.7,3,0.9l0.5,0.1c1.6,0.5,3.2,0.9,4.8,1.3l4.9,0.5h1.8
			c1.7-0.3,3.3-0.2,5-0.5l2.6-0.5c1-0.4,1.9-0.6,2.9-0.8l2.4-0.9c0.6-0.4,1.1-0.6,1.5-0.9l0.7-0.3c0,0,0.1,0,0.1,0l0.3-0.2
			c1.3-0.6,2-1,2.3-1.2c0.3-0.2,0.6-0.4,0.9-0.7c0.2-1.3,0.5-2.6,1-3.9l0.1-0.1c0.4-0.8,0.8-1.6,1.2-2.4h-45.6
			C496.9,509.2,497,509.4,497.1,509.6z"/>
		<path class="st0" d="M388.5,542.6c2.6-2.2,4.6-4.9,6-8c1.1-2.2,1.9-4.6,2.4-7.1c0.3-1.5,0.5-3,0.5-4.4c0-1.6-0.2-3.3-0.5-4.8
			c-0.4-2.6-1.3-5.1-2.5-7.5c-1.2-2.5-2.9-4.9-5-6.9c-1.8-1.8-3.9-3.4-6.1-4.6l-0.8-0.5l-0.9-0.4c-2.1-0.9-4.3-1.5-6.5-1.9
			c-1.3-0.3-2.6-0.4-4-0.5v-15.4c2.8-0.1,5.6-0.6,8.3-1.6l0.7-0.3c1.5-0.6,3.1-1.4,4.6-2.3l1.2-0.7l1.1-0.9c1.8-1.5,3.4-3.2,4.8-5.1
			c1.8-2.3,3.1-4.8,4-7.6c1-2.7,1.5-5.5,1.5-8.5c0-2.9-0.5-5.7-1.5-8.3c-0.8-2.6-2-5.1-3.7-7.4l-0.8-1c-1.3-1.6-2.8-3-4.4-4.3
			l-1-0.7c-2.3-1.6-4.7-2.8-7.2-3.6c-2.5-0.9-5.2-1.4-7.8-1.4v-7.6c0-2.4-0.3-4.8-0.9-7.2l-0.2-0.9l-0.3-0.9
			c-0.9-2.3-2.1-4.6-3.6-6.6c-1.6-2.4-3.7-4.4-6.2-6.2c-2.3-1.6-4.7-2.8-7.2-3.6c-5.5-1.9-11.4-1.9-16.8,0c-2.5,0.8-4.9,2-7.2,3.6
			c-2.1,1.5-4,3.2-5.6,5.1l-0.9,1.1l-0.7,1.2c-1,1.7-1.9,3.6-2.6,5.5l-0.3,0.9l-0.2,0.9c-0.6,2.4-0.9,4.9-0.9,7.3v9.3
			c-2.4,0.8-4.7,2.1-6.7,3.6c-2.3,1.7-4.3,3.7-5.8,5.9c-1.5,2.1-2.7,4.3-3.5,6.6l-0.4,1.2c0-0.1,0-0.1-0.1-0.2
			c-0.6-1.7-1.4-3.3-2.2-4.8h-46.1c-1.1,1.8-2,3.7-2.6,5.7c-0.9,2.7-1.4,5.4-1.4,8v40.6l-0.3,0.5c-0.7,1.2-1.6,2.4-2.6,3.4l-0.1,0.1
			v-44.6c0-2.3-0.3-4.7-0.9-7l-0.2-0.9l-0.3-0.9c-0.6-1.7-1.4-3.3-2.3-4.8h-46.1c-0.9,1.5-1.8,3.1-2.4,4.8l-0.3,0.9l-0.2,0.9
			c-0.6,2.4-0.9,4.8-0.9,7v8.5c-1.2-2-2.4-3.9-3.6-5.8l-0.2-0.3c-4.4-6.4-9.9-11.7-16.3-16.1H101c-1.5,1.1-3,2.3-4.4,3.7
			c-5.5,4.9-9.9,10.7-13,17.2c-2.9,5.5-5.2,11.5-6.9,17.7l-0.6,2.1V507l1.2,2.9c3,7.3,6.9,14.3,11.6,20.8
			c4.3,5.9,9.6,10.9,15.8,14.9h66.7c0.6-0.4,1.2-0.7,1.7-1c1.8-1.2,3.5-2.5,5.1-3.8c5.4-4.4,9.9-9.6,13.3-15.5c1-1.8,2-3.6,2.9-5.4
			c1.1,3.2,2.4,6.4,3.9,9.4c3.3,6.6,8.1,12.1,14.1,16.5h83.3c0.2-0.2,0.5-0.5,0.7-0.7l0.9-1.1l0.7-1.2c0.9-1.6,1.8-3.4,2.5-5.2
			c1.2-2.9,1.8-6,1.8-9.1v-62.9c0.7,1.3,1.5,2.6,2.3,3.8c1.6,2.5,3.7,4.6,6.2,6.4l0.4,0.3c1.8,1.2,3.7,2.2,5.8,3v21.4
			c0,4.2-0.1,8.8-0.2,13.5l0,0.7c0,8.1,2.3,15.5,6.8,22c0.9,1.3,1.9,2.7,2.9,3.9c1,1.2,2.1,2.3,3.1,3.4l1,0.9
			c0.5,0.4,0.9,0.7,1.4,1.1H385c0.7-0.6,1.4-1.2,2-1.8C387.3,543.6,387.8,543.1,388.5,542.6z M146.3,496.3l-0.2,0.3
			c-0.4,0.7-0.8,1.4-1.3,2.1c-0.3,0.4-0.7,0.7-1,1c0,0-0.1,0-0.1,0.1l-0.9,0.5c-1.2,0.6-2.6,1-4.3,1.2l-0.3,0
			c-0.2,0-1.5,0.1-2.7-0.1c-0.3-0.1-0.5-0.2-0.8-0.2l-0.1-0.1c-0.6-0.3-1.1-0.7-1.4-1l-0.5-0.5c-0.9-1-1.8-2.1-2.5-3.3l-0.4-0.7
			v-2.4l0.2-0.2v-4c0.1-0.2,0.2-0.5,0.3-0.7c0.4-1,0.9-1.9,1.6-2.8l0.6-0.8c0.2-0.3,0.4-0.4,0.5-0.4c0.7-0.3,1.2-0.5,1.9-0.5l1.4,0
			c0.8,0,1.5,0,2.2,0.1l1.1,0.6l1.3,0.4c1,0.6,1.8,1.4,2.5,2.5l0.3,0.4c1,1.3,1.9,2.7,2.7,4V496.3z"/>
		<path class="st0" d="M453.2,542.9c1.6-2.3,2.9-4.7,3.7-7.3c1-2.6,1.5-5.4,1.5-8.3c0-3-0.5-5.9-1.5-8.5c-0.7-2.2-1.7-4.3-3-6.2
			V406.2c0-2.4-0.3-4.9-0.9-7.3l-0.2-0.9l-0.3-0.9c-1-2.5-2.3-4.9-3.9-6.9c-1.6-2.1-3.5-4-5.9-5.7c-1.9-1.3-3.9-2.5-5.9-3.3
			l-1.2-0.5l-1.3-0.3c-4.8-1.2-9.6-1.2-14.4,0l-1.3,0.3l-1.2,0.5c-2,0.9-4,2-6,3.4c-2.1,1.5-4,3.2-5.6,5.1l-0.5,0.6l-0.5,0.7
			c-1.3,1.9-2.3,4-3.2,6.3l-0.3,0.9l-0.2,0.9c-0.6,2.4-0.9,4.9-0.9,7.3v139.4h50.6c0.6-0.6,1.2-1.1,1.7-1.8L453.2,542.9z"/>
		<path class="st0" d="M574.3,508.9h0.6v-30.1c0-2.7-0.2-5.6-0.6-8.7l0-0.2c-1-4.9-2.7-9.7-4.9-14.4c-2.5-4.7-5.7-8.9-9.6-12.5
			c-1.3-1.2-2.7-2.3-4.2-3.4c-1.4-0.9-2.9-1.9-4.5-2.9l-0.2-0.1c-8.1-4.2-17-6.8-26.5-7.6c-2.2-0.2-4.4-0.3-6.4-0.3
			c-7,0-14.1,1-20.9,2.9l-0.2,0.1c-2.2,0.8-4.4,1.6-6.6,2.6c-2.3,1-4.5,2.2-6.6,3.6c-8.2,5.5-14.4,12.6-18.3,21.3
			c-3.6,8.4-6,17.1-7.2,26l0,3.5l0,0.6c0.2,0.9,0.2,1.7,0.2,2.5v3.3l0,0.3c0.2,1.7,0.3,3.4,0.3,5.2l0.6,5.9l0,0.2
			c0.4,2.4,0.9,5,1.5,7.7l0.1,0.3c0.8,2.4,1.7,5,2.7,7.6l0.1,0.2c0.8,1.7,1.7,3.4,2.6,5.1c0.9,2,2,3.9,3.2,5.5
			c1,1.4,2.2,2.7,3.4,4.1l3.7,3.5c1.3,1.2,2.7,2.4,4.2,3.4c1.4,1,2.9,1.9,4.6,2.9c6.1,3.5,12.8,5.9,19.8,7.3
			c5.4,1.1,11,1.7,16.6,1.7c1.4,0,2.8-0.1,4.3-0.3c1.8,0,3.8-0.2,5.8-0.6c1.8-0.2,3.6-0.5,5.4-0.9l5.5-1.7c1.8-0.6,3.6-1.3,5.5-2
			c3.2-1.4,6.3-2.9,9.1-4.6c3-1.7,5.9-3.7,8.6-5.9c2.1-1.8,3.7-3.2,4.8-4.1l0.2-0.2c1.2-1.2,2.8-2.8,4.8-4.8l0.9-0.9v-12.4
			c0-1.8-0.4-3.8-1-5.7C575.3,510.9,574.8,509.8,574.3,508.9z M499.3,471.9c1.1-2,2.5-3.6,4.3-4.8c0.6-0.4,1.2-0.8,1.8-1.1
			c0.7-0.3,1.5-0.7,2.3-1c1.8-0.6,3.8-1,5.8-1.2h6.4c2.3,0.2,4.5,0.4,6.4,0.8c2,0.5,4,1.1,5.8,1.9c0.5,0.3,1,0.7,1.5,1l1.4,0.9
			c1.1,1.2,1.9,2.6,2.5,4.1c0.2,0.6,0.3,1.2,0.5,1.9H498C498.4,473.5,498.9,472.7,499.3,471.9z M541.2,511.3l-0.1,0.1
			c-0.5,1.3-0.8,2.6-1,3.9c-0.4,0.3-0.7,0.5-0.9,0.7c-0.3,0.2-1,0.6-2.3,1.2l-0.3,0.2c0,0-0.1,0-0.1,0l-0.7,0.3
			c-0.4,0.2-0.9,0.5-1.5,0.9l-2.4,0.9c-1,0.2-1.9,0.5-2.9,0.8l-2.6,0.5c-1.6,0.3-3.3,0.2-5,0.5h-1.8l-4.9-0.5
			c-1.6-0.3-3.2-0.8-4.8-1.3l-0.5-0.1c-0.9-0.1-1.9-0.4-3-0.9l-3-1.4c-0.3-0.3-0.7-0.5-1.1-0.7c-0.3-0.3-0.6-0.5-0.9-0.8
			c-0.4-0.4-0.9-0.8-1.4-1.1c-0.3-0.4-0.7-0.8-1-1.2c-0.4-0.5-0.7-1-1-1.6c-0.4-0.7-0.7-1.4-1.1-2.1c-0.1-0.2-0.2-0.5-0.3-0.7h45.6
			C542,509.7,541.6,510.5,541.2,511.3z"/>
		<path class="st0" d="M658.9,543.9c0.3-0.3,0.8-0.7,1.5-1.3c2.6-2.2,4.6-4.9,6-8c1.1-2.2,1.9-4.6,2.3-7.1c0.3-1.5,0.5-3,0.5-4.4
			c0-1.6-0.2-3.2-0.5-4.8c-0.4-2.6-1.3-5.1-2.5-7.5c-1.2-2.5-2.9-4.9-5-6.9c-1.8-1.8-3.9-3.4-6.1-4.6l-0.8-0.5l-0.9-0.4
			c-2.1-0.9-4.3-1.5-6.5-1.9c-1.3-0.3-2.6-0.4-4-0.5v-15.4c2.8-0.1,5.6-0.6,8.3-1.6l0.7-0.3c1.5-0.6,3.1-1.4,4.6-2.3l1.2-0.7
			l1.1-0.9c1.8-1.5,3.4-3.2,4.8-5.1c1.8-2.3,3.1-4.8,4-7.6c1-2.7,1.5-5.5,1.5-8.5c0-2.9-0.5-5.7-1.5-8.3c-0.8-2.6-2-5.1-3.7-7.4
			l-0.8-1c-1.3-1.6-2.8-3-4.4-4.3l-1-0.8c-2.3-1.6-4.7-2.8-7.2-3.6c-2.5-0.9-5.2-1.4-7.8-1.4v-7.6c0-2.4-0.3-4.9-0.9-7.3l-0.2-0.9
			l-0.3-0.9c-0.9-2.3-2.1-4.6-3.5-6.6c-1.6-2.4-3.7-4.4-6.2-6.2c-2.3-1.6-4.7-2.8-7.2-3.6c-5.5-1.9-11.4-1.9-16.8,0
			c-2.5,0.8-4.9,2-7.2,3.6c-2.1,1.5-4,3.2-5.6,5.1l-0.9,1.1l-0.7,1.2c-1,1.7-1.9,3.6-2.6,5.5l-0.3,0.8l-0.2,0.9
			c-0.6,2.4-0.9,4.9-0.9,7.3v9.3c-2.4,0.8-4.7,2.1-6.7,3.6c-2.3,1.7-4.2,3.7-5.8,5.9c-1.5,2.1-2.6,4.3-3.5,6.6l-0.4,1.3
			c-0.7,2.4-1,5-1,7.6c0,2.8,0.4,5.4,1.1,7.8l0.4,1.2c0.9,2.4,2.1,4.6,3.6,6.5c1.6,2.5,3.7,4.6,6.2,6.4l0.4,0.3
			c1.8,1.2,3.7,2.2,5.8,3v21.4c0,4.2-0.1,8.8-0.2,13.4l0,0.7c0,8.1,2.3,15.5,6.8,22c0.9,1.3,1.9,2.7,2.9,3.9c1,1.2,2.1,2.4,3.1,3.4
			l1,0.9c0.5,0.4,0.9,0.7,1.4,1.1h52.6C657.7,545,658.3,544.4,658.9,543.9z"/>
	</g>
</g>
</svg>
