<?xml version="1.0" encoding="utf-8"?>
<!-- Generator: Adobe Illustrator 24.1.2, SVG Export Plug-In . SVG Version: 6.00 Build 0)  -->
<svg version="1.1" id="Ebene_1" xmlns="http://www.w3.org/2000/svg" xmlns:xlink="http://www.w3.org/1999/xlink" x="0px" y="0px"
	 viewBox="0 0 121 37.9" style="enable-background:new 0 0 121 37.9;" xml:space="preserve">
<style type="text/css">
	.st0{fill:none;stroke:#020203;stroke-miterlimit:10;}
</style>
<g>
	<path class="st0" d="M14.8,22.8c-0.1-0.2-0.3-0.4-0.5-0.5l-0.3-0.1l-0.2-0.1c-0.1,0-0.3,0-0.4,0l-0.3,0c-0.1,0-0.2,0-0.4,0.1
		c0,0,0,0-0.1,0.1l-0.1,0.2c-0.1,0.2-0.3,0.4-0.3,0.6c0,0.1,0,0.1-0.1,0.1v0.8l0,0v0.5l0.1,0.1c0.1,0.2,0.3,0.5,0.5,0.7l0.1,0.1
		c0.1,0.1,0.2,0.1,0.3,0.2l0,0c0.1,0,0.1,0,0.2,0c0.2,0,0.5,0,0.5,0l0.1,0c0.3,0,0.6-0.1,0.9-0.2l0.2-0.1c0,0,0,0,0,0
		c0.1-0.1,0.1-0.1,0.2-0.2c0.1-0.1,0.2-0.3,0.3-0.4l0-0.1v-0.9C15.3,23.4,15.1,23.1,14.8,22.8L14.8,22.8z"/>
	<path class="st0" d="M93.7,19.8c-0.1-0.3-0.3-0.6-0.5-0.8l-0.3-0.2c-0.1-0.1-0.2-0.1-0.3-0.2c-0.4-0.2-0.8-0.3-1.2-0.4
		c-0.4-0.1-0.8-0.1-1.3-0.2h-1.3c-0.4,0-0.8,0.1-1.2,0.2c-0.2,0.1-0.3,0.1-0.5,0.2c-0.1,0.1-0.2,0.1-0.4,0.2c-0.4,0.2-0.6,0.6-0.9,1
		c-0.1,0.2-0.2,0.3-0.3,0.5h8C93.8,20.1,93.8,20,93.7,19.8z"/>
	<path class="st0" d="M85.6,27.3c0.1,0.1,0.1,0.3,0.2,0.4c0.1,0.1,0.1,0.2,0.2,0.3c0.1,0.1,0.1,0.1,0.2,0.2c0.1,0.1,0.2,0.1,0.3,0.2
		c0.1,0.1,0.1,0.1,0.2,0.2c0.1,0,0.1,0.1,0.2,0.1l0.6,0.3c0.2,0.1,0.4,0.1,0.6,0.2l0.1,0c0.3,0.1,0.6,0.2,1,0.3l1,0.1h0.4
		c0.3-0.1,0.7,0,1-0.1l0.5-0.1c0.2-0.1,0.4-0.1,0.6-0.2l0.5-0.2c0.1-0.1,0.2-0.1,0.3-0.2l0.1-0.1c0,0,0,0,0,0l0.1,0
		c0.3-0.1,0.4-0.2,0.5-0.2c0.1,0,0.1-0.1,0.2-0.1c0-0.3,0.1-0.5,0.2-0.8l0,0c0.1-0.2,0.2-0.3,0.2-0.5h-9.1
		C85.6,27.2,85.6,27.2,85.6,27.3z"/>
	<path class="st0" d="M63.9,33.9c0.5-0.4,0.9-1,1.2-1.6c0.2-0.4,0.4-0.9,0.5-1.4c0.1-0.3,0.1-0.6,0.1-0.9c0-0.3,0-0.7-0.1-1
		c-0.1-0.5-0.3-1-0.5-1.5c-0.2-0.5-0.6-1-1-1.4c-0.4-0.4-0.8-0.7-1.2-0.9l-0.2-0.1L62.5,25c-0.4-0.2-0.9-0.3-1.3-0.4
		c-0.3-0.1-0.5-0.1-0.8-0.1v-3.1c0.6,0,1.1-0.1,1.7-0.3l0.1-0.1c0.3-0.1,0.6-0.3,0.9-0.5l0.2-0.1l0.2-0.2c0.4-0.3,0.7-0.6,1-1
		c0.4-0.5,0.6-1,0.8-1.5c0.2-0.5,0.3-1.1,0.3-1.7c0-0.6-0.1-1.1-0.3-1.7c-0.2-0.5-0.4-1-0.7-1.5l-0.2-0.2c-0.3-0.3-0.6-0.6-0.9-0.9
		l-0.2-0.1c-0.5-0.3-0.9-0.6-1.4-0.7c-0.5-0.2-1-0.3-1.6-0.3V9.2c0-0.5-0.1-1-0.2-1.5l0-0.2l-0.1-0.2c-0.2-0.5-0.4-0.9-0.7-1.3
		c-0.3-0.5-0.7-0.9-1.2-1.2c-0.5-0.3-0.9-0.6-1.4-0.7c-1.1-0.4-2.3-0.4-3.4,0c-0.5,0.2-1,0.4-1.4,0.7c-0.4,0.3-0.8,0.6-1.1,1
		l-0.2,0.2l-0.1,0.2c-0.2,0.3-0.4,0.7-0.5,1.1l-0.1,0.2l0,0.2c-0.1,0.5-0.2,1-0.2,1.5v1.9c-0.5,0.2-0.9,0.4-1.3,0.7
		c-0.5,0.3-0.9,0.7-1.2,1.2c-0.3,0.4-0.5,0.9-0.7,1.3l-0.1,0.2c0,0,0,0,0,0c-0.1-0.3-0.3-0.7-0.4-1h-9.2c-0.2,0.4-0.4,0.7-0.5,1.1
		c-0.2,0.5-0.3,1.1-0.3,1.6v8.1l-0.1,0.1c-0.1,0.2-0.3,0.5-0.5,0.7l0,0v-8.9c0-0.5-0.1-0.9-0.2-1.4l0-0.2L35,14.5
		c-0.1-0.3-0.3-0.7-0.5-1h-9.2c-0.2,0.3-0.4,0.6-0.5,1l-0.1,0.2l0,0.2c-0.1,0.5-0.2,1-0.2,1.4V18c-0.2-0.4-0.5-0.8-0.7-1.2l0-0.1
		c-0.9-1.3-2-2.3-3.3-3.2H6.4C6,13.8,5.7,14,5.5,14.3c-1.1,1-2,2.1-2.6,3.4c-0.6,1.1-1,2.3-1.4,3.5l-0.1,0.4v5.1l0.2,0.6
		c0.6,1.5,1.4,2.9,2.3,4.2c0.9,1.2,1.9,2.2,3.2,3h13.3c0.1-0.1,0.2-0.1,0.3-0.2c0.4-0.2,0.7-0.5,1-0.8c1.1-0.9,2-1.9,2.7-3.1
		c0.2-0.4,0.4-0.7,0.6-1.1c0.2,0.6,0.5,1.3,0.8,1.9c0.7,1.3,1.6,2.4,2.8,3.3h16.7c0,0,0.1-0.1,0.1-0.1l0.2-0.2l0.1-0.2
		c0.2-0.3,0.4-0.7,0.5-1c0.2-0.6,0.4-1.2,0.4-1.8V18.4c0.1,0.3,0.3,0.5,0.5,0.8c0.3,0.5,0.7,0.9,1.2,1.3l0.1,0.1
		c0.4,0.2,0.7,0.4,1.2,0.6v4.3c0,0.8,0,1.8,0,2.7l0,0.1c0,1.6,0.5,3.1,1.4,4.4c0.2,0.3,0.4,0.5,0.6,0.8c0.2,0.2,0.4,0.5,0.6,0.7
		l0.2,0.2c0.1,0.1,0.2,0.1,0.3,0.2h10.5c0.1-0.1,0.3-0.2,0.4-0.4C63.6,34.1,63.7,34,63.9,33.9z M15.4,24.6L15.4,24.6
		c-0.1,0.2-0.2,0.3-0.3,0.5c-0.1,0.1-0.1,0.1-0.2,0.2c0,0,0,0,0,0l-0.2,0.1c-0.2,0.1-0.5,0.2-0.9,0.2l-0.1,0c0,0-0.3,0-0.5,0
		c-0.1,0-0.1,0-0.2,0l0,0c-0.1-0.1-0.2-0.1-0.3-0.2l-0.1-0.1c-0.2-0.2-0.4-0.4-0.5-0.7l-0.1-0.1V24l0,0v-0.8c0,0,0-0.1,0.1-0.1
		c0.1-0.2,0.2-0.4,0.3-0.6l0.1-0.2c0-0.1,0.1-0.1,0.1-0.1c0.1-0.1,0.2-0.1,0.4-0.1l0.3,0c0.2,0,0.3,0,0.4,0l0.2,0.1l0.3,0.1
		c0.2,0.1,0.4,0.3,0.5,0.5l0.1,0.1c0.2,0.3,0.4,0.5,0.5,0.8V24.6z"/>
	<path class="st0" d="M76.8,33.9c0.3-0.5,0.6-0.9,0.7-1.5c0.2-0.5,0.3-1.1,0.3-1.7c0-0.6-0.1-1.2-0.3-1.7c-0.1-0.4-0.3-0.9-0.6-1.2
		V6.6c0-0.5-0.1-1-0.2-1.5l0-0.2l-0.1-0.2c-0.2-0.5-0.5-1-0.8-1.4c-0.3-0.4-0.7-0.8-1.2-1.1c-0.4-0.3-0.8-0.5-1.2-0.7l-0.2-0.1
		L73,1.4c-1-0.2-1.9-0.2-2.9,0l-0.3,0.1l-0.2,0.1c-0.4,0.2-0.8,0.4-1.2,0.7c-0.4,0.3-0.8,0.6-1.1,1l-0.1,0.1l-0.1,0.1
		c-0.3,0.4-0.5,0.8-0.6,1.3L66.4,5l0,0.2c-0.1,0.5-0.2,1-0.2,1.5v27.9h10.1c0.1-0.1,0.2-0.2,0.3-0.4L76.8,33.9z"/>
	<path class="st0" d="M101.1,27.2h0.1v-6c0-0.5,0-1.1-0.1-1.7l0,0c-0.2-1-0.5-1.9-1-2.9c-0.5-0.9-1.1-1.8-1.9-2.5
		c-0.3-0.2-0.5-0.5-0.8-0.7c-0.3-0.2-0.6-0.4-0.9-0.6l0,0c-1.6-0.8-3.4-1.4-5.3-1.5c-0.4,0-0.9-0.1-1.3-0.1c-1.4,0-2.8,0.2-4.2,0.6
		l0,0c-0.4,0.2-0.9,0.3-1.3,0.5c-0.5,0.2-0.9,0.4-1.3,0.7c-1.6,1.1-2.9,2.5-3.7,4.3c-0.7,1.7-1.2,3.4-1.4,5.2l0,0.7l0,0.1
		c0,0.2,0,0.3,0,0.5v0.7l0,0.1c0,0.3,0.1,0.7,0.1,1l0.1,1.2l0,0c0.1,0.5,0.2,1,0.3,1.5l0,0.1c0.2,0.5,0.3,1,0.5,1.5l0,0
		c0.2,0.3,0.3,0.7,0.5,1c0.2,0.4,0.4,0.8,0.6,1.1c0.2,0.3,0.4,0.5,0.7,0.8l0.7,0.7c0.3,0.2,0.5,0.5,0.8,0.7c0.3,0.2,0.6,0.4,0.9,0.6
		c1.2,0.7,2.6,1.2,4,1.5c1.1,0.2,2.2,0.3,3.3,0.3c0.3,0,0.6,0,0.9-0.1c0.4,0,0.8,0,1.2-0.1c0.4,0,0.7-0.1,1.1-0.2l1.1-0.3
		c0.4-0.1,0.7-0.3,1.1-0.4c0.6-0.3,1.3-0.6,1.8-0.9c0.6-0.3,1.2-0.7,1.7-1.2c0.4-0.4,0.7-0.6,1-0.8l0,0c0.2-0.2,0.6-0.6,1-1l0.2-0.2
		v-2.5c0-0.4-0.1-0.8-0.2-1.1C101.3,27.5,101.2,27.3,101.1,27.2z M86.1,19.7c0.2-0.4,0.5-0.7,0.9-1c0.1-0.1,0.2-0.2,0.4-0.2
		c0.1-0.1,0.3-0.1,0.5-0.2c0.4-0.1,0.8-0.2,1.2-0.2h1.3c0.5,0,0.9,0.1,1.3,0.2c0.4,0.1,0.8,0.2,1.2,0.4c0.1,0.1,0.2,0.1,0.3,0.2
		l0.3,0.2c0.2,0.2,0.4,0.5,0.5,0.8c0,0.1,0.1,0.2,0.1,0.4h-8C85.9,20.1,86,19.9,86.1,19.7z M94.4,27.6L94.4,27.6
		c-0.1,0.3-0.2,0.5-0.2,0.8c-0.1,0.1-0.1,0.1-0.2,0.1c-0.1,0-0.2,0.1-0.5,0.2l-0.1,0c0,0,0,0,0,0l-0.1,0.1c-0.1,0-0.2,0.1-0.3,0.2
		l-0.5,0.2c-0.2,0-0.4,0.1-0.6,0.2l-0.5,0.1c-0.3,0.1-0.7,0-1,0.1h-0.4l-1-0.1c-0.3-0.1-0.6-0.2-1-0.3l-0.1,0
		c-0.2,0-0.4-0.1-0.6-0.2l-0.6-0.3c-0.1-0.1-0.1-0.1-0.2-0.1c-0.1-0.1-0.1-0.1-0.2-0.2c-0.1-0.1-0.2-0.2-0.3-0.2
		c-0.1-0.1-0.1-0.2-0.2-0.2c-0.1-0.1-0.1-0.2-0.2-0.3c-0.1-0.1-0.1-0.3-0.2-0.4c0,0,0-0.1-0.1-0.1h9.1
		C94.6,27.3,94.5,27.5,94.4,27.6z"/>
	<path class="st0" d="M118,34.1c0.1-0.1,0.2-0.1,0.3-0.3c0.5-0.4,0.9-1,1.2-1.6c0.2-0.4,0.4-0.9,0.5-1.4c0.1-0.3,0.1-0.6,0.1-0.9
		c0-0.3,0-0.6-0.1-1c-0.1-0.5-0.3-1-0.5-1.5c-0.2-0.5-0.6-1-1-1.4c-0.4-0.4-0.8-0.7-1.2-0.9l-0.2-0.1l-0.2-0.1
		c-0.4-0.2-0.9-0.3-1.3-0.4c-0.3-0.1-0.5-0.1-0.8-0.1v-3.1c0.6,0,1.1-0.1,1.7-0.3l0.1-0.1c0.3-0.1,0.6-0.3,0.9-0.5l0.2-0.1l0.2-0.2
		c0.4-0.3,0.7-0.6,1-1c0.4-0.5,0.6-1,0.8-1.5c0.2-0.5,0.3-1.1,0.3-1.7c0-0.6-0.1-1.1-0.3-1.7c-0.2-0.5-0.4-1-0.7-1.5l-0.2-0.2
		c-0.3-0.3-0.6-0.6-0.9-0.9l-0.2-0.2c-0.5-0.3-0.9-0.6-1.4-0.7c-0.5-0.2-1-0.3-1.6-0.3V9.2c0-0.5-0.1-1-0.2-1.5l0-0.2l-0.1-0.2
		c-0.2-0.5-0.4-0.9-0.7-1.3c-0.3-0.5-0.7-0.9-1.2-1.2c-0.5-0.3-0.9-0.6-1.4-0.7c-1.1-0.4-2.3-0.4-3.4,0c-0.5,0.2-1,0.4-1.4,0.7
		c-0.4,0.3-0.8,0.6-1.1,1L105,6.1l-0.1,0.2c-0.2,0.3-0.4,0.7-0.5,1.1l-0.1,0.2l0,0.2c-0.1,0.5-0.2,1-0.2,1.5v1.9
		c-0.5,0.2-0.9,0.4-1.3,0.7c-0.5,0.3-0.9,0.7-1.2,1.2c-0.3,0.4-0.5,0.9-0.7,1.3l-0.1,0.3c-0.1,0.5-0.2,1-0.2,1.5
		c0,0.6,0.1,1.1,0.2,1.6l0.1,0.2c0.2,0.5,0.4,0.9,0.7,1.3c0.3,0.5,0.7,0.9,1.2,1.3l0.1,0.1c0.4,0.2,0.7,0.4,1.2,0.6v4.3
		c0,0.9,0,1.8,0,2.7l0,0.1c0,1.6,0.5,3.1,1.4,4.4c0.2,0.3,0.4,0.5,0.6,0.8c0.2,0.2,0.4,0.5,0.6,0.7l0.2,0.2c0.1,0.1,0.2,0.1,0.3,0.2
		h10.5C117.7,34.4,117.9,34.3,118,34.1z"/>
</g>
</svg>
